# xmcd CD database file
#
# Track frame offsets:
#	150
#	30340
#	54042
#	77886
#	95573
#	118812
#	148018
#	168611
#	191106
#	207378
#	227818
#	258008
#	276580
#
# Disc length: 3909 seconds
#
# Revision: 0
# Processed by: cddbd v1.5.1PL2 Copyright (c) Steve Scherf et al.
# Submitted via: CDex 1.51
#
DISCID=ba0f430d
DTITLE=Marocana - Flamenco Legends
DYEAR=2005
DGENRE=Salsa
TTITLE0=Malaguena
TTITLE1=Concierto De Aranjuez
TTITLE2=Sentimento Gitano
TTITLE3=Romance
TTITLE4=Tango
TTITLE5=Farruca
TTITLE6=Tarrantas
TTITLE7=Torna A Surriento
TTITLE8=Andalucia Alegrias
TTITLE9=Dusk
TTITLE10=Wings of the Condor
TTITLE11=Flamenco Folk
TTITLE12=Carmen
EXTD=YEAR: 2005
EXTT0=
EXTT1=
EXTT2=
EXTT3=
EXTT4=
EXTT5=
EXTT6=
EXTT7=
EXTT8=
EXTT9=
EXTT10=
EXTT11=
EXTT12=
PLAYORDER=
